<svg width="140" height="31" viewBox="0 0 140 31" fill="none" xmlns="http://www.w3.org/2000/svg">
<path d="M62.4638 0.493896H66.6574V4.75817H62.4638V0.493896ZM24.7215 13.7579V23.912H20.5279V14.0406C20.5279 12.0852 19.562 10.9072 17.795 10.9072C16.028 10.9072 14.7794 12.1559 14.7794 14.6296V23.912H10.5858V14.0406C10.5858 12.0852 9.61985 10.9072 7.85289 10.9072C6.08592 10.9072 4.81371 12.1559 4.81371 14.6296V23.912H0.620117V7.42039H4.81371V9.1638C5.73253 7.77379 7.24034 6.9492 9.31358 6.9492C11.3868 6.9492 12.8239 7.79734 13.7192 9.32871C14.7323 7.84446 16.3343 6.9492 18.5489 6.9492C22.2949 6.97276 24.7215 9.63499 24.7215 13.7579ZM25.6639 15.6898C25.6639 10.7658 29.457 6.97276 34.216 6.97276C38.975 6.97276 42.8152 10.7658 42.8152 15.6898C42.8152 20.6137 38.9986 24.4068 34.216 24.4068C29.4334 24.3832 25.6639 20.5902 25.6639 15.6898ZM38.6216 15.6898C38.6216 13.0276 36.7133 11.1428 34.216 11.1428C31.7187 11.1428 29.8339 13.0276 29.8339 15.6898C29.8339 18.352 31.7422 20.2368 34.216 20.2368C36.7133 20.2368 38.6216 18.352 38.6216 15.6898ZM61.3094 15.6662C61.3094 20.5902 57.7519 24.3832 53.3934 24.3832C51.0375 24.3832 49.3176 23.488 48.1397 21.9802V23.9132H43.9461V0.493896H48.1397V9.37583C49.3176 7.86802 51.0139 6.97276 53.3934 6.97276C57.7284 6.97276 61.3094 10.7658 61.3094 15.6662ZM57.1158 15.6662C57.1158 12.8862 55.2075 11.0014 52.616 11.0014C50.0244 11.0014 48.1397 12.8862 48.1397 15.6662C48.1397 18.4462 50.048 20.331 52.616 20.331C55.184 20.331 57.1158 18.4462 57.1158 15.6662ZM62.4638 7.42039H66.6574V23.912H62.4638V7.42039ZM68.6836 0.493896H72.9478V23.9132H68.6836V0.493896ZM83.0313 20.5195C84.6569 20.5195 85.9527 19.8363 86.6595 18.8703L90.0285 20.8493C88.4971 23.0875 86.0705 24.3832 82.9606 24.3832C77.5184 24.3832 74.0787 20.5902 74.0787 15.6662C74.0787 10.7423 77.5419 6.9492 82.6308 6.9492C87.4369 6.9492 90.8295 10.813 90.8295 15.6662C90.8295 16.2552 90.7824 16.8442 90.6646 17.4096H78.4608C79.0262 19.6007 80.8167 20.5195 83.0313 20.5195ZM86.6595 14.1349C86.1412 11.7553 84.3978 10.813 82.6308 10.813C80.3926 10.813 78.8613 12.0381 78.3901 14.1349H86.6595Z" fill="#0F261F"/>
<path d="M83.9502 0.493896L111.562 15.6427H102.067L83.9502 0.493896Z" fill="#07850D"/>
<path d="M120.161 30.8147L117.734 19.0585L139.15 30.8147H120.161Z" fill="#06D906"/>
<path d="M83.9502 30.815L94.5049 27.6816L102.939 30.815H83.9502Z" fill="#07850D"/>
<path d="M139.15 0.493896H120.161L111.562 7.70311V15.6427L139.15 0.493896Z" fill="#06D906"/>
<path d="M115.002 17.551L111.562 23.5822L120.161 30.815L117.735 19.0588L115.002 17.551Z" fill="#07850D"/>
<path d="M102.067 15.6425L83.9502 30.8148L111.562 15.6425H102.067Z" fill="#06D906"/>
<path d="M121.033 15.6425L115.002 17.5508L117.735 19.0586L121.033 15.6425Z" fill="#06D906"/>
<path d="M121.033 15.6425L117.734 19.0586L139.15 30.8148L121.033 15.6425Z" fill="#50F40C"/>
<path d="M115.002 17.551L121.033 15.6427L139.15 0.493896L94.5049 27.6816L102.939 30.815L111.562 23.5822L115.002 17.551Z" fill="#13A91B"/>
<path d="M102.939 0.493896H83.9502L111.562 15.6427V7.70311L102.939 0.493896Z" fill="#50F40C"/>
<path d="M139.15 0.493896L111.562 15.6427L83.9502 30.815L94.5049 27.6816L139.15 0.493896Z" fill="#50F40C"/>
<path fill-rule="evenodd" clip-rule="evenodd" d="M138.671 7.67751C138.671 8.85503 137.716 9.80961 136.539 9.80961C135.361 9.80961 134.407 8.85503 134.407 7.67751C134.407 6.49998 135.361 5.54541 136.539 5.54541C137.716 5.54541 138.671 6.49998 138.671 7.67751ZM138.391 7.67764C138.391 8.70043 137.561 9.52956 136.539 9.52956C135.516 9.52956 134.687 8.70043 134.687 7.67764C134.687 6.65485 135.516 5.82572 136.539 5.82572C137.561 5.82572 138.391 6.65485 138.391 7.67764ZM137.43 8.77114L136.937 7.89886H136.95C137.253 7.79772 137.392 7.57017 137.392 7.26676C137.392 6.92543 137.127 6.5841 136.583 6.5841H135.926V8.77114H136.204V7.94942H136.659L137.114 8.77114H137.43ZM137.089 7.2794C137.089 7.5196 136.937 7.68394 136.583 7.68394H136.204V6.86222H136.583C136.912 6.86222 137.089 7.03921 137.089 7.2794Z" fill="#50F40C"/>
<path d="M3.11532 27.4252V28.0646H2.19978V30.816H1.5313V28.0646H0.620605V27.4252H3.11532Z" fill="#29B730"/>
<path d="M6.8939 27.4252H7.55754V30.816H6.8939V29.4113H5.63444V30.816H4.96595V27.4252H5.63444V28.7718H6.8939V27.4252Z" fill="#29B730"/>
<path d="M10.3334 30.1766H11.7624V30.816H9.66492V27.4252H11.7382V28.0646H10.3334V28.7864H11.6171V29.4161H10.3334V30.1766Z" fill="#29B730"/>
<path d="M17.6638 27.4252C18.3178 27.4252 18.8216 27.929 18.8216 28.5635C18.8216 29.1981 18.3178 29.7019 17.6638 29.7019H17.068V30.816H16.3995V27.4252H17.6638ZM17.6638 29.077C17.9496 29.077 18.1579 28.8542 18.1579 28.5635C18.1579 28.2681 17.9496 28.0501 17.6638 28.0501H17.068V29.077H17.6638Z" fill="#29B730"/>
<path d="M21.4027 30.1766H22.8317V30.816H20.7342V27.4252H22.8075V28.0646H21.4027V28.7864H22.6864V29.4161H21.4027V30.1766Z" fill="#29B730"/>
<path d="M26.3601 30.8839C25.3816 30.8839 24.6017 30.1088 24.6017 29.1206C24.6017 28.1276 25.3816 27.3574 26.3601 27.3574C27.3386 27.3574 28.1234 28.1276 28.1234 29.1206C28.1234 30.1088 27.3386 30.8839 26.3601 30.8839ZM26.3601 30.2299C26.9753 30.2299 27.4549 29.7697 27.4549 29.1206C27.4549 28.4667 26.9753 28.0065 26.3601 28.0065C25.7449 28.0065 25.2654 28.4667 25.2654 29.1206C25.2654 29.7697 25.7449 30.2299 26.3601 30.2299Z" fill="#29B730"/>
<path d="M31.335 27.4252C31.9889 27.4252 32.4927 27.929 32.4927 28.5635C32.4927 29.1981 31.9889 29.7019 31.335 29.7019H30.7392V30.816H30.0707V27.4252H31.335ZM31.335 29.077C31.6208 29.077 31.8291 28.8542 31.8291 28.5635C31.8291 28.2681 31.6208 28.0501 31.335 28.0501H30.7392V29.077H31.335Z" fill="#29B730"/>
<path d="M35.0739 30.1766H36.3673V30.816H34.4054V27.4252H35.0739V30.1766Z" fill="#29B730"/>
<path d="M38.893 30.1766H40.322V30.816H38.2245V27.4252H40.2977V28.0646H38.893V28.7864H40.1766V29.4161H38.893V30.1766Z" fill="#29B730"/>
<path d="M43.4284 30.8839C42.7357 30.8839 42.2803 30.5496 42.0962 30.0458L42.6678 29.7116C42.7889 30.0265 43.0263 30.2299 43.4477 30.2299C43.8498 30.2299 43.9903 30.0604 43.9903 29.8714C43.9903 29.6196 43.7626 29.5227 43.2588 29.3773C42.7405 29.2272 42.2367 29.0092 42.2367 28.3649C42.2367 27.7255 42.7696 27.3574 43.3509 27.3574C43.9079 27.3574 44.3342 27.6432 44.5619 28.1179L44 28.4424C43.8789 28.1857 43.6948 28.0065 43.3509 28.0065C43.0699 28.0065 42.9052 28.1518 42.9052 28.3456C42.9052 28.5539 43.036 28.6653 43.5495 28.8203C44.0872 28.9898 44.6588 29.1691 44.6588 29.8618C44.6588 30.4963 44.1501 30.8839 43.4284 30.8839Z" fill="#29B730"/>
<path d="M51.2225 27.4252H51.891V30.816H51.3824L49.9292 28.7428V30.816H49.2607V27.4252H49.7693L51.2225 29.4936V27.4252Z" fill="#29B730"/>
<path d="M54.666 30.1766H56.095V30.816H53.9975V27.4252H56.0708V28.0646H54.666V28.7864H55.9497V29.4161H54.666V30.1766Z" fill="#29B730"/>
<path d="M60.2865 27.4252V28.0646H59.3709V30.816H58.7024V28.0646H57.7918V27.4252H60.2865Z" fill="#29B730"/>
<path d="M62.8443 30.816L61.8949 27.4252H62.5973L63.2464 29.9393L63.9536 27.4252H64.5252L65.2373 29.9393L65.8864 27.4252H66.5888L65.6394 30.816H64.8789L64.2394 28.5781L63.6049 30.816H62.8443Z" fill="#29B730"/>
<path d="M69.9059 30.8839C68.9274 30.8839 68.1475 30.1088 68.1475 29.1206C68.1475 28.1276 68.9274 27.3574 69.9059 27.3574C70.8844 27.3574 71.6692 28.1276 71.6692 29.1206C71.6692 30.1088 70.8844 30.8839 69.9059 30.8839ZM69.9059 30.2299C70.5211 30.2299 71.0007 29.7697 71.0007 29.1206C71.0007 28.4667 70.5211 28.0065 69.9059 28.0065C69.2907 28.0065 68.8112 28.4667 68.8112 29.1206C68.8112 29.7697 69.2907 30.2299 69.9059 30.2299Z" fill="#29B730"/>
<path d="M75.4766 30.816L74.7936 29.6389H74.285V30.816H73.6165V27.4252H74.9728C75.5977 27.4252 76.1015 27.929 76.1015 28.549C76.1015 28.9753 75.8351 29.358 75.4475 29.5372L76.1984 30.816H75.4766ZM74.285 28.0501V29.0528H74.9728C75.2247 29.0528 75.433 28.83 75.433 28.549C75.433 28.2681 75.2247 28.0501 74.9728 28.0501H74.285Z" fill="#29B730"/>
<path d="M80.7192 30.816H79.949L78.7379 29.2272V30.816H78.0695V27.4252H78.7379V28.922L79.9005 27.4252H80.6707L79.4161 29.0722L80.7192 30.816Z" fill="#29B730"/>
</svg>
